<svg width="153" height="46" viewBox="0 0 153 46" fill="none" xmlns="http://www.w3.org/2000/svg">
<path d="M4.42152 24.1431V19.7232H12.3414C14.0582 19.7232 15.4672 19.1241 16.5686 17.9261C17.6699 16.6956 18.2205 15.1251 18.2205 13.2147C18.2205 11.9195 17.929 10.7861 17.346 9.81472C16.7629 8.81093 15.9531 8.03379 14.9166 7.48332C13.9124 6.90047 12.7463 6.62524 11.4182 6.65762H4.42152V2.28624L11.4668 2.23767C13.7342 2.23767 15.7264 2.70719 17.4431 3.64623C19.1923 4.58526 20.5528 5.88049 21.5245 7.53189C22.5287 9.15092 23.0308 11.0452 23.0308 13.2147C23.0308 15.3194 22.5773 17.1975 21.6703 18.8489C20.7633 20.5003 19.5 21.7955 17.8804 22.7346C16.2932 23.6736 14.4631 24.1431 12.39 24.1431H4.42152ZM0 36.2858V2.28624H4.76164V36.2858H0Z" fill="#9640EC"/>
<path d="M34.7003 36.8687C32.3357 36.8687 30.2464 36.3344 28.4324 35.2658C26.6185 34.1649 25.1932 32.6592 24.1567 30.7488C23.1201 28.8383 22.6018 26.6364 22.6018 24.1431C22.6018 21.6498 23.1201 19.4479 24.1567 17.5375C25.1932 15.627 26.6185 14.1375 28.4324 13.069C30.2788 11.968 32.3842 11.4176 34.7489 11.4176C36.9515 11.4176 38.8951 11.9842 40.5794 13.1175C42.2962 14.2185 43.6243 15.8051 44.5637 17.8775C45.5354 19.9175 46.0213 22.3298 46.0213 25.1145H41.4054C41.4378 23.0422 41.1787 21.2936 40.628 19.8689C40.1098 18.4441 39.3323 17.3756 38.2958 16.6632C37.2916 15.9185 36.0769 15.5461 34.6517 15.5461C33.1293 15.5461 31.8174 15.9023 30.716 16.6146C29.6147 17.2946 28.7563 18.2822 28.1409 19.5775C27.5578 20.8403 27.2663 22.3946 27.2663 24.2403C27.2663 25.9564 27.6064 27.4459 28.2866 28.7088C28.9669 29.9392 29.8901 30.9107 31.0562 31.623C32.2223 32.303 33.5504 32.643 35.0404 32.643C36.6276 32.643 37.9395 32.2706 38.976 31.5259C40.045 30.7811 40.8872 29.8259 41.5026 28.6602L45.6326 30.5545C44.9848 31.8173 44.1426 32.9344 43.106 33.9059C42.0695 34.8449 40.8386 35.5735 39.4133 36.0915C38.0205 36.6096 36.4494 36.8687 34.7003 36.8687ZM25.6143 25.1145L25.6629 21.326H43.4461V25.1145H25.6143Z" fill="#9640EC"/>
<path d="M47.909 46V12.0004H52.2334L52.5249 16.4689V46H47.909ZM60.4934 36.8687C58.4527 36.8687 56.6711 36.3344 55.1487 35.2658C53.6586 34.1973 52.5087 32.7078 51.6989 30.7973C50.8891 28.8869 50.4842 26.6688 50.4842 24.1431C50.4842 21.5851 50.8891 19.367 51.6989 17.4889C52.5087 15.5785 53.6586 14.089 55.1487 13.0204C56.6711 11.9518 58.4527 11.4176 60.4934 11.4176C62.6636 11.4176 64.5748 11.9518 66.2268 13.0204C67.8788 14.089 69.1582 15.5785 70.0652 17.4889C71.0046 19.367 71.4743 21.5851 71.4743 24.1431C71.4743 26.6688 71.0046 28.8869 70.0652 30.7973C69.1582 32.7078 67.8788 34.1973 66.2268 35.2658C64.5748 36.3344 62.6636 36.8687 60.4934 36.8687ZM59.3758 32.6916C60.8335 32.6916 62.113 32.3354 63.2143 31.623C64.3156 30.8783 65.174 29.8745 65.7895 28.6116C66.4373 27.3164 66.7612 25.8269 66.7612 24.1431C66.7612 22.4593 66.4535 20.986 65.8381 19.7232C65.2226 18.428 64.3642 17.4242 63.2629 16.7118C62.1616 15.967 60.8821 15.5947 59.4244 15.5947C58.0963 15.5947 56.8978 15.967 55.8289 16.7118C54.7924 17.4242 53.9826 18.428 53.3995 19.7232C52.8164 21.0184 52.5249 22.4917 52.5249 24.1431C52.5249 25.8269 52.8164 27.3164 53.3995 28.6116C53.9826 29.8745 54.7924 30.8783 55.8289 31.623C56.8654 32.3354 58.0478 32.6916 59.3758 32.6916Z" fill="#9640EC"/>
<path d="M83.3336 36.2858C79.5218 36.1277 76.6986 33.8035 74.8639 29.3133C73.5037 25.9297 72.8235 21.7873 72.8235 16.886C72.8235 16.633 72.8394 16.3089 72.871 15.9136C73.0924 12.5775 73.7093 9.51811 74.7215 6.73541C76.3664 2.24514 78.6915 0 81.6966 0C81.8547 0 82.0208 0.00790541 82.1948 0.0237162C84.931 0.197635 86.2992 1.78662 86.2992 4.79068C86.2992 8.06352 84.8915 11.7 82.0762 15.7001C80.2889 18.2457 78.4147 20.309 76.4534 21.8901C76.9912 24.8941 77.5843 27.1472 78.2328 28.6492C79.4348 31.4319 81.2221 32.8233 83.5946 32.8233C83.7527 32.8233 83.9188 32.8075 84.0928 32.7758C84.6147 32.681 85.3423 32.3015 86.2754 31.6375C87.177 31.0208 87.8808 30.7125 88.3869 30.7125C88.6084 30.7125 88.8219 30.7837 89.0275 30.926C89.4862 31.2422 89.7155 31.6691 89.7155 32.2066C89.6839 33.0288 89.0987 33.8747 87.9599 34.7443C86.5364 35.772 84.9943 36.2858 83.3336 36.2858ZM81.7203 3.58115C80.7871 3.59696 79.9647 4.00014 79.2529 4.79068C77.4499 6.83027 76.4613 11.0913 76.2874 17.5737C77.2363 16.6093 78.1853 15.4709 79.1343 14.1586C81.7598 10.5695 83.0726 7.54176 83.0726 5.07527C83.0726 4.94879 83.041 4.79858 82.9777 4.62466C82.7247 3.92899 82.3055 3.58115 81.7203 3.58115Z" fill="#9640EC"/>
<path d="M107.494 36.2858L107.202 31.8173V12.0004H111.77V36.2858H107.494ZM90.391 25.8917V12.0004H95.0069V24.4345L90.391 25.8917ZM95.0069 24.4345C95.0069 26.604 95.2498 28.2716 95.7357 29.4373C96.254 30.603 96.9666 31.4126 97.8736 31.8659C98.7806 32.3192 99.8009 32.5621 100.935 32.5944C102.911 32.5944 104.449 31.8983 105.551 30.5059C106.652 29.1135 107.202 27.1545 107.202 24.6288H109.195C109.195 27.1869 108.822 29.3888 108.077 31.2345C107.332 33.0478 106.247 34.4401 104.822 35.4116C103.429 36.383 101.744 36.8687 99.7685 36.8687C96.8532 36.8687 94.5534 35.962 92.869 34.1487C91.217 32.3354 90.391 29.5831 90.391 25.8917L95.0069 24.4345Z" fill="#9640EC"/>
<path d="M114.809 36.2858V12.0004H119.133L119.425 16.4689V36.2858H114.809ZM131.62 36.2858V23.8517L136.236 22.3946V36.2858H131.62ZM148.432 36.2858V23.8517L152.999 22.3946V36.2858H148.432ZM131.62 23.8517C131.62 21.6498 131.361 19.9822 130.843 18.8489C130.357 17.6832 129.661 16.8737 128.754 16.4204C127.879 15.967 126.859 15.7242 125.693 15.6918C123.717 15.6918 122.178 16.388 121.077 17.7803C119.975 19.1727 119.425 21.1317 119.425 23.6574H117.433C117.433 21.0993 117.805 18.9137 118.55 17.1003C119.295 15.2547 120.364 13.8461 121.757 12.8747C123.182 11.9033 124.883 11.4176 126.859 11.4176C129.774 11.4176 132.058 12.3242 133.71 14.1375C135.394 15.9185 136.236 18.6708 136.236 22.3946L131.62 23.8517ZM148.432 23.8517C148.432 21.6498 148.173 19.9822 147.654 18.8489C147.136 17.6832 146.44 16.8737 145.565 16.4204C144.691 15.967 143.67 15.7242 142.504 15.6918C140.528 15.6918 138.99 16.388 137.888 17.7803C136.787 19.1727 136.236 21.1317 136.236 23.6574H134.244C134.244 21.0993 134.617 18.9137 135.362 17.1003C136.107 15.2547 137.176 13.8461 138.568 12.8747C139.994 11.9033 141.694 11.4176 143.67 11.4176C146.585 11.4176 148.869 12.3242 150.521 14.1375C152.205 15.9185 153.031 18.6708 152.999 22.3946L148.432 23.8517Z" fill="#9640EC"/>
</svg>
