<svg width="688" height="186" viewBox="0 0 688 186" fill="none" xmlns="http://www.w3.org/2000/svg">
<path d="M0 186V41.3333H21.6941L23.1403 60.3467V186H0ZM55.7848 147.147C47.1071 147.147 39.6003 144.942 33.2643 140.533C27.0659 135.987 22.3139 129.649 19.0081 121.52C15.7024 113.391 14.0495 103.884 14.0495 93C14.0495 81.9778 15.7024 72.4711 19.0081 64.48C22.3139 56.3511 27.0659 50.0822 33.2643 45.6733C39.6003 41.1267 47.1071 38.8533 55.7848 38.8533C65.1511 38.8533 73.2778 41.1267 80.1648 45.6733C87.1895 50.0822 92.6303 56.3511 96.487 64.48C100.481 72.4711 102.479 81.9778 102.479 93C102.479 103.884 100.481 113.391 96.487 121.52C92.6303 129.649 87.1895 135.987 80.1648 140.533C73.2778 144.942 65.1511 147.147 55.7848 147.147ZM49.9997 126.067C55.5093 126.067 60.3991 124.689 64.669 121.933C68.9389 119.04 72.3136 115.113 74.7929 110.153C77.41 105.193 78.7185 99.4756 78.7185 93C78.7185 86.5244 77.4788 80.8067 74.9995 75.8467C72.6579 70.8867 69.3522 67.0289 65.0822 64.2733C60.8123 61.5178 55.8536 60.14 50.2063 60.14C44.9722 60.14 40.289 61.5178 36.1568 64.2733C32.0246 67.0289 28.7877 70.8867 26.4461 75.8467C24.2423 80.8067 23.1403 86.5244 23.1403 93C23.1403 99.4756 24.2423 105.193 26.4461 110.153C28.7877 115.113 31.9557 119.04 35.9502 121.933C40.0824 124.689 44.7656 126.067 49.9997 126.067Z" fill="#9640EC"/>
<path d="M168.321 147.147C158.266 147.147 149.313 144.873 141.462 140.327C133.748 135.642 127.619 129.236 123.074 121.107C118.666 112.978 116.462 103.609 116.462 93C116.462 82.3911 118.735 73.0222 123.28 64.8933C127.826 56.7645 134.024 50.4267 141.875 45.88C149.864 41.1956 158.955 38.8533 169.148 38.8533C178.376 38.8533 186.641 41.2644 193.941 46.0867C201.379 50.7711 207.302 57.5911 211.709 66.5467C216.117 75.5022 218.321 86.18 218.321 98.58H194.974C194.974 89.6244 193.872 82.2533 191.668 76.4667C189.602 70.68 186.572 66.4089 182.577 63.6533C178.721 60.76 173.969 59.3133 168.321 59.3133C162.398 59.3133 157.302 60.6222 153.032 63.24C148.762 65.8578 145.525 69.7156 143.321 74.8133C141.117 79.7733 140.016 86.0422 140.016 93.62C140.016 100.371 141.324 106.158 143.941 110.98C146.696 115.802 150.346 119.522 154.892 122.14C159.575 124.62 164.74 125.86 170.387 125.86C176.586 125.86 181.682 124.482 185.676 121.727C189.671 118.833 192.77 115.182 194.974 110.773L216.255 119.867C213.362 125.378 209.643 130.2 205.098 134.333C200.69 138.467 195.387 141.636 189.189 143.84C183.128 146.044 176.172 147.147 168.321 147.147ZM131.751 98.58V80.1867H206.131V98.58H131.751Z" fill="#9640EC"/>
<path d="M237.077 186V41.3333H258.771L260.218 60.3467V186H237.077ZM292.862 147.147C284.184 147.147 276.677 144.942 270.341 140.533C264.143 135.987 259.391 129.649 256.085 121.52C252.78 113.391 251.127 103.884 251.127 93C251.127 81.9778 252.78 72.4711 256.085 64.48C259.391 56.3511 264.143 50.0822 270.341 45.6733C276.677 41.1267 284.184 38.8533 292.862 38.8533C302.228 38.8533 310.355 41.1267 317.242 45.6733C324.267 50.0822 329.707 56.3511 333.564 64.48C337.559 72.4711 339.556 81.9778 339.556 93C339.556 103.884 337.559 113.391 333.564 121.52C329.707 129.649 324.267 135.987 317.242 140.533C310.355 144.942 302.228 147.147 292.862 147.147ZM287.077 126.067C292.586 126.067 297.476 124.689 301.746 121.933C306.016 119.04 309.391 115.113 311.87 110.153C314.487 105.193 315.796 99.4756 315.796 93C315.796 86.5244 314.556 80.8067 312.077 75.8467C309.735 70.8867 306.429 67.0289 302.159 64.2733C297.889 61.5178 292.931 60.14 287.283 60.14C282.049 60.14 277.366 61.5178 273.234 64.2733C269.102 67.0289 265.865 70.8867 263.523 75.8467C261.319 80.8067 260.218 86.5244 260.218 93C260.218 99.4756 261.319 105.193 263.523 110.153C265.865 115.113 269.033 119.04 273.027 121.933C277.16 124.689 281.843 126.067 287.077 126.067Z" fill="#9640EC"/>
<path d="M359.324 144.667V0H382.465V144.667H359.324Z" fill="#9640EC"/>
<path d="M477.367 144.667L476.127 125.653V41.3333H499.061V144.667H477.367ZM405.879 100.44V41.3333H429.02V94.24L405.879 100.44ZM429.02 94.24C429.02 102.369 429.984 108.707 431.912 113.253C433.841 117.8 436.458 120.969 439.763 122.76C443.207 124.551 447.133 125.447 451.54 125.447C459.391 125.584 465.452 123.036 469.722 117.8C473.992 112.564 476.127 105.056 476.127 95.2733H484.804C484.804 106.158 483.152 115.527 479.846 123.38C476.678 131.096 472.132 137.02 466.21 141.153C460.424 145.149 453.469 147.147 445.342 147.147C432.808 147.147 423.097 143.289 416.21 135.573C409.323 127.858 405.879 116.147 405.879 100.44L429.02 94.24Z" fill="#9640EC"/>
<path d="M524.774 144.667V41.3333H546.468L547.914 60.3467V144.667H524.774ZM594.815 144.667V91.76L617.955 85.56V144.667H594.815ZM665.062 144.667V91.76L687.996 85.56V144.667H665.062ZM594.815 91.76C594.815 83.4933 593.851 77.1556 591.922 72.7467C590.132 68.2 587.514 65.0311 584.071 63.24C580.765 61.4489 576.84 60.5533 572.294 60.5533C564.581 60.4156 558.589 62.9644 554.319 68.2C550.049 73.4356 547.914 80.9445 547.914 90.7267H539.237C539.237 79.8422 540.821 70.5422 543.989 62.8267C547.157 54.9733 551.702 49.0489 557.625 45.0533C563.548 40.92 570.572 38.8533 578.699 38.8533C591.233 38.8533 600.875 42.7111 607.625 50.4267C614.512 58.0044 617.955 69.7156 617.955 85.56L594.815 91.76ZM665.062 91.76C665.062 83.4933 664.098 77.1556 662.17 72.7467C660.241 68.2 657.555 65.0311 654.112 63.24C650.806 61.4489 646.949 60.5533 642.542 60.5533C634.69 60.4156 628.63 62.9644 624.36 68.2C620.09 73.4356 617.955 80.9445 617.955 90.7267H609.277C609.277 79.8422 610.861 70.5422 614.029 62.8267C617.198 54.9733 621.743 49.0489 627.666 45.0533C633.589 40.92 640.613 38.8533 648.74 38.8533C661.274 38.8533 670.985 42.7111 677.872 50.4267C684.759 58.0044 688.134 69.7156 687.996 85.56L665.062 91.76Z" fill="#9640EC"/>
</svg>
